<?xml version="1.0" encoding="UTF-8" standalone="no"?>
<svg
   width="33.369999mm"
   height="33.433117mm"
   viewBox="0 0 33.369999 33.433117"
   version="1.1"
   id="svg293"
   sodipodi:docname="logo-split.svg"
   xml:space="preserve"
   inkscape:version="1.2.1 (9c6d41e4, 2022-07-14)"
   xmlns:inkscape="http://www.inkscape.org/namespaces/inkscape"
   xmlns:sodipodi="http://sodipodi.sourceforge.net/DTD/sodipodi-0.dtd"
   xmlns:xlink="http://www.w3.org/1999/xlink"
   xmlns="http://www.w3.org/2000/svg"
   xmlns:svg="http://www.w3.org/2000/svg"><defs
     id="defs297"><linearGradient
   inkscape:collect="always"
   id="linearGradient4209"><stop
     style="stop-color:#28166f;stop-opacity:1;"
     offset="0.10027102"
     id="stop4205" /><stop
     style="stop-color:#0487d2;stop-opacity:1;"
     offset="1"
     id="stop4207" /></linearGradient><linearGradient
   inkscape:collect="always"
   id="linearGradient1093"><stop
     style="stop-color:#28166f;stop-opacity:1;"
     offset="0"
     id="stop1089" /><stop
     style="stop-color:#0487d2;stop-opacity:1;"
     offset="1"
     id="stop1091" /></linearGradient><inkscape:path-effect
   effect="powerclip"
   id="path-effect2141"
   is_visible="true"
   lpeversion="1"
   inverse="true"
   flatten="false"
   hide_clip="false"
   message="Use fill-rule evenodd on &lt;b&gt;fill and stroke&lt;/b&gt; dialog if no flatten result after convert clip to paths." /><inkscape:path-effect
   effect="powerclip"
   id="path-effect1965"
   is_visible="true"
   lpeversion="1"
   inverse="true"
   flatten="false"
   hide_clip="false"
   message="Use fill-rule evenodd on &lt;b&gt;fill and stroke&lt;/b&gt; dialog if no flatten result after convert clip to paths." />
	
<clipPath
   clipPathUnits="userSpaceOnUse"
   id="clipPath1760"><path
     id="path1762"
     style="display:block;fill:#6699ff;fill-rule:evenodd;stroke-width:0.875546"
     d="m 15.964475,7.0646134 1.433285,-2.3603474 9.94751,5.648842 -1.433286,2.360348 z" /></clipPath><inkscape:path-effect
   effect="powerclip"
   id="path-effect1764"
   is_visible="true"
   lpeversion="1"
   inverse="true"
   flatten="false"
   hide_clip="false"
   message="Use fill-rule evenodd on &lt;b&gt;fill and stroke&lt;/b&gt; dialog if no flatten result after convert clip to paths." /><clipPath
   clipPathUnits="userSpaceOnUse"
   id="clipPath1992"><g
     id="g1996"><path
       id="path1994"
       class="powerclip"
       d="M 9.859711,3.450532 H 27.951042 V 26.847304 H 9.859711 Z m 6.104764,3.6140813 9.947509,5.6488427 1.433285,-2.360348 -9.947509,-5.6488421 z m 6.312397,-0.2242242 -1.433285,-2.3603482 -9.947509,5.6488431 1.433285,2.360348 z" /></g></clipPath><clipPath
   clipPathUnits="userSpaceOnUse"
   id="clipPath1998"><g
     id="g2002"><path
       id="path2000"
       class="powerclip"
       d="M 9.859711,3.450532 H 27.951042 V 26.847304 H 9.859711 Z m 6.104764,3.6140813 9.947509,5.6488427 1.433285,-2.360348 -9.947509,-5.6488421 z m 6.312397,-0.2242242 -1.433285,-2.3603482 -9.947509,5.6488431 1.433285,2.360348 z" /></g></clipPath><clipPath
   clipPathUnits="userSpaceOnUse"
   id="clipPath2004"><g
     id="g2008"><path
       id="path2006"
       class="powerclip"
       d="M 9.859711,3.450532 H 27.951042 V 26.847304 H 9.859711 Z m 6.104764,3.6140813 9.947509,5.6488427 1.433285,-2.360348 -9.947509,-5.6488421 z m 6.312397,-0.2242242 -1.433285,-2.3603482 -9.947509,5.6488431 1.433285,2.360348 z" /></g></clipPath><clipPath
   clipPathUnits="userSpaceOnUse"
   id="clipPath2010"><g
     id="g2014"><path
       id="path2012"
       class="powerclip"
       d="M 9.859711,3.450532 H 27.951042 V 26.847304 H 9.859711 Z m 6.104764,3.6140813 9.947509,5.6488427 1.433285,-2.360348 -9.947509,-5.6488421 z m 6.312397,-0.2242242 -1.433285,-2.3603482 -9.947509,5.6488431 1.433285,2.360348 z" /></g></clipPath><clipPath
   clipPathUnits="userSpaceOnUse"
   id="clipPath2016"><g
     id="g2020"><path
       id="path2018"
       class="powerclip"
       d="M 9.859711,3.450532 H 27.951042 V 26.847304 H 9.859711 Z m 6.104764,3.6140813 9.947509,5.6488427 1.433285,-2.360348 -9.947509,-5.6488421 z m 6.312397,-0.2242242 -1.433285,-2.3603482 -9.947509,5.6488431 1.433285,2.360348 z" /></g></clipPath><clipPath
   clipPathUnits="userSpaceOnUse"
   id="clipPath2137"><path
     d="M 15.935994,3.6113897 C 14.920926,3.7504759 14.0828,4.0082428 13.088254,4.4873349 11.980554,5.0227238 11.35931,5.4764268 10.396381,6.4395789 8.66189,8.1864988 7.714492,10.375531 7.54365,13.013296 c -0.05713,0.906854 0.1342329,2.34965 0.4398621,3.354198 0.2019049,0.669513 0.2484988,0.74182 0.7044478,1.174548 0.8231482,0.772728 1.6202261,1.185034 3.2720711,1.679581 0.460387,0.133573 1.563649,0.340001 2.163816,0.396853 0.636775,0.05629 2.397336,0.02538 2.925394,-0.06182 1.294074,-0.206432 2.661366,-0.556919 3.350281,-0.855524 0.08764,-0.0414 0.17528,-0.07176 0.190811,-0.07176 0.01553,0 0.259036,-0.09824 0.538597,-0.211395 0.724969,-0.309093 1.765553,-0.855523 2.49607,-1.303707 0.351668,-0.216362 0.64676,-0.380843 0.662291,-0.365389 0.05158,0.05133 -1.279097,1.349514 -1.827679,1.792732 a 12.210223,12.150062 0 0 1 -2.283072,1.457701 c -0.367755,0.180487 -0.688361,0.330066 -0.709438,0.330066 -0.02052,0 -0.134793,0.04637 -0.259038,0.102664 -0.299528,0.139086 -1.092169,0.381397 -1.760007,0.535943 -0.973467,0.231819 -2.795598,0.422793 -3.593231,0.37643 -0.641767,-0.03642 -2.179902,-0.170554 -2.511048,-0.221884 l -0.222428,-0.03092 0.336693,0.262729 c 1.81714,1.42734 4.441897,2.169162 6.756031,1.911401 3.945456,-0.437696 7.176479,-3.127345 8.325783,-6.929174 0.248496,-0.824058 0.481462,-2.189582 0.372745,-2.189582 -0.01553,0 -0.232966,0.13413 -0.481465,0.299158 a 22.345932,22.235832 0 0 1 -5.886843,2.787347 c -1.356753,0.416721 -3.458999,0.663996 -4.799666,0.566303 -0.761024,-0.05684 -1.786077,-0.190424 -1.899787,-0.247276 -0.04659,-0.02594 -0.186373,-0.06182 -0.316169,-0.08279 -0.258482,-0.04084 -1.242489,-0.355456 -1.750022,-0.561332 -0.439863,-0.174968 -1.646297,-0.803638 -2.0451139,-1.066367 -0.797079,-0.525455 -1.2369421,-0.870423 -1.10271,-0.870423 0.010549,0 0.170843,0.07175 0.3627628,0.154545 0.4864571,0.221332 1.7139691,0.669515 1.8326711,0.669515 0.005,0 0.0099,-1.576368 0.0099,-3.503223 V 8.7892149 l 0.196911,-0.1186741 c 0.362208,-0.2318181 0.998983,-0.561331 1.025053,-0.5409099 0.01055,0.015441 0.02107,1.8291609 0.02107,4.0292301 0,3.374068 0.0099,3.997218 0.07211,3.997218 0.03661,0 0.145322,0.01544 0.232966,0.03092 l 0.160858,0.03091 0.0099,-4.214131 0.01553,-4.2191032 0.569659,-0.3195799 c 0.316169,-0.174966 0.590182,-0.3146091 0.615698,-0.3090902 0.02608,0.010559 0.04161,1.9428621 0.03661,4.6363733 l -0.01055,4.621473 h 0.471479 V 6.8574068 l 0.170842,-0.1081881 c 0.476472,-0.3035718 0.408802,-0.2986048 0.756033,-0.09274 l 0.315614,0.1854549 V 11.62292 c 0,2.622312 0.01055,4.785954 0.02052,4.796438 0.01553,0.01545 0.119261,0.01545 0.232966,0.0056 l 0.212443,-0.02098 v -4.63145 c 0,-2.5450382 0.01553,-4.6314061 0.04161,-4.6314061 0.02052,0 0.295092,0.1490279 0.605713,0.3295129 l 0.569105,0.3245461 0.01553,4.2345571 c 0.01114,3.53965 0.02107,4.229588 0.0832,4.229588 0.03605,0 0.14478,-0.01544 0.232966,-0.03092 l 0.160854,-0.03589 v -4.033644 c 0,-3.1996522 0.01491,-4.0391662 0.06657,-4.0341991 0.03162,0 0.305629,0.144613 0.606267,0.3201299 l 0.54359,0.319028 0.01553,3.5700082 c 0.005,1.957764 0.02552,3.565592 0.04105,3.565592 0.02608,0 0.745492,-0.237338 1.397798,-0.463638 0.145323,-0.05188 0.310623,-0.118672 0.362763,-0.144613 0.05158,-0.03092 0.321161,-0.154546 0.590182,-0.273215 0.445409,-0.19539 1.128778,-0.550845 1.760006,-0.911821 0.813164,-0.463637 2.226495,-1.468186 3.183876,-2.266855 0.601274,-0.50448 0.585743,-0.417275 0.306184,-1.324126 a 9.9731888,9.9240504 0 0 0 -2.8272,-4.4873371 C 22.293597,4.7141847 20.347217,3.8178198 18.42136,3.5915208 c -0.605713,-0.07175 -1.895351,-0.06182 -2.484977,0.020431 z"
     fill="#0098da"
     style="display:block;fill:#808080;fill-opacity:1;stroke-width:0.553315"
     id="path2139" /></clipPath><clipPath
   clipPathUnits="userSpaceOnUse"
   id="clipPath2137-1"><path
     d="M 15.935994,3.6113897 C 14.920926,3.7504759 14.0828,4.0082428 13.088254,4.4873349 11.980554,5.0227238 11.35931,5.4764268 10.396381,6.4395789 8.66189,8.1864988 7.714492,10.375531 7.54365,13.013296 c -0.05713,0.906854 0.1342329,2.34965 0.4398621,3.354198 0.2019049,0.669513 0.2484988,0.74182 0.7044478,1.174548 0.8231482,0.772728 1.6202261,1.185034 3.2720711,1.679581 0.460387,0.133573 1.563649,0.340001 2.163816,0.396853 0.636775,0.05629 2.397336,0.02538 2.925394,-0.06182 1.294074,-0.206432 2.661366,-0.556919 3.350281,-0.855524 0.08764,-0.0414 0.17528,-0.07176 0.190811,-0.07176 0.01553,0 0.259036,-0.09824 0.538597,-0.211395 0.724969,-0.309093 1.765553,-0.855523 2.49607,-1.303707 0.351668,-0.216362 0.64676,-0.380843 0.662291,-0.365389 0.05158,0.05133 -1.279097,1.349514 -1.827679,1.792732 a 12.210223,12.150062 0 0 1 -2.283072,1.457701 c -0.367755,0.180487 -0.688361,0.330066 -0.709438,0.330066 -0.02052,0 -0.134793,0.04637 -0.259038,0.102664 -0.299528,0.139086 -1.092169,0.381397 -1.760007,0.535943 -0.973467,0.231819 -2.795598,0.422793 -3.593231,0.37643 -0.641767,-0.03642 -2.179902,-0.170554 -2.511048,-0.221884 l -0.222428,-0.03092 0.336693,0.262729 c 1.81714,1.42734 4.441897,2.169162 6.756031,1.911401 3.945456,-0.437696 7.176479,-3.127345 8.325783,-6.929174 0.248496,-0.824058 0.481462,-2.189582 0.372745,-2.189582 -0.01553,0 -0.232966,0.13413 -0.481465,0.299158 a 22.345932,22.235832 0 0 1 -5.886843,2.787347 c -1.356753,0.416721 -3.458999,0.663996 -4.799666,0.566303 -0.761024,-0.05684 -1.786077,-0.190424 -1.899787,-0.247276 -0.04659,-0.02594 -0.186373,-0.06182 -0.316169,-0.08279 -0.258482,-0.04084 -1.242489,-0.355456 -1.750022,-0.561332 -0.439863,-0.174968 -1.646297,-0.803638 -2.0451139,-1.066367 -0.797079,-0.525455 -1.2369421,-0.870423 -1.10271,-0.870423 0.010549,0 0.170843,0.07175 0.3627628,0.154545 0.4864571,0.221332 1.7139691,0.669515 1.8326711,0.669515 0.005,0 0.0099,-1.576368 0.0099,-3.503223 V 8.7892149 l 0.196911,-0.1186741 c 0.362208,-0.2318181 0.998983,-0.561331 1.025053,-0.5409099 0.01055,0.015441 0.02107,1.8291609 0.02107,4.0292301 0,3.374068 0.0099,3.997218 0.07211,3.997218 0.03661,0 0.145322,0.01544 0.232966,0.03092 l 0.160858,0.03091 0.0099,-4.214131 0.01553,-4.2191032 0.569659,-0.3195799 c 0.316169,-0.174966 0.590182,-0.3146091 0.615698,-0.3090902 0.02608,0.010559 0.04161,1.9428621 0.03661,4.6363733 l -0.01055,4.621473 h 0.471479 V 6.8574068 l 0.170842,-0.1081881 c 0.476472,-0.3035718 0.408802,-0.2986048 0.756033,-0.09274 l 0.315614,0.1854549 V 11.62292 c 0,2.622312 0.01055,4.785954 0.02052,4.796438 0.01553,0.01545 0.119261,0.01545 0.232966,0.0056 l 0.212443,-0.02098 v -4.63145 c 0,-2.5450382 0.01553,-4.6314061 0.04161,-4.6314061 0.02052,0 0.295092,0.1490279 0.605713,0.3295129 l 0.569105,0.3245461 0.01553,4.2345571 c 0.01114,3.53965 0.02107,4.229588 0.0832,4.229588 0.03605,0 0.14478,-0.01544 0.232966,-0.03092 l 0.160854,-0.03589 v -4.033644 c 0,-3.1996522 0.01491,-4.0391662 0.06657,-4.0341991 0.03162,0 0.305629,0.144613 0.606267,0.3201299 l 0.54359,0.319028 0.01553,3.5700082 c 0.005,1.957764 0.02552,3.565592 0.04105,3.565592 0.02608,0 0.745492,-0.237338 1.397798,-0.463638 0.145323,-0.05188 0.310623,-0.118672 0.362763,-0.144613 0.05158,-0.03092 0.321161,-0.154546 0.590182,-0.273215 0.445409,-0.19539 1.128778,-0.550845 1.760006,-0.911821 0.813164,-0.463637 2.226495,-1.468186 3.183876,-2.266855 0.601274,-0.50448 0.585743,-0.417275 0.306184,-1.324126 a 9.9731888,9.9240504 0 0 0 -2.8272,-4.4873371 C 22.293597,4.7141847 20.347217,3.8178198 18.42136,3.5915208 c -0.605713,-0.07175 -1.895351,-0.06182 -2.484977,0.020431 z"
     fill="#0098da"
     style="display:none;fill:#808080;fill-opacity:1;stroke-width:0.553315"
     id="path2139-3" /><path
     id="lpe_path-effect2141-6"
     style="fill:#808080;fill-opacity:1;stroke-width:0.553315"
     class="powerclip"
     d="M 1.2007132,-2.6062403 H 33.272908 V 29.465955 H 1.2007132 Z m 14.7352808,6.21763 C 14.920926,3.7504759 14.0828,4.0082428 13.088254,4.4873349 11.980554,5.0227238 11.35931,5.4764268 10.396381,6.4395789 8.66189,8.1864988 7.714492,10.375531 7.54365,13.013296 c -0.05713,0.906854 0.1342329,2.34965 0.4398621,3.354198 0.2019049,0.669513 0.2484988,0.74182 0.7044478,1.174548 0.8231482,0.772728 1.6202261,1.185034 3.2720711,1.679581 0.460387,0.133573 1.563649,0.340001 2.163816,0.396853 0.636775,0.05629 2.397336,0.02538 2.925394,-0.06182 1.294074,-0.206432 2.661366,-0.556919 3.350281,-0.855524 0.08764,-0.0414 0.17528,-0.07176 0.190811,-0.07176 0.01553,0 0.259036,-0.09824 0.538597,-0.211395 0.724969,-0.309093 1.765553,-0.855523 2.49607,-1.303707 0.351668,-0.216362 0.64676,-0.380843 0.662291,-0.365389 0.05158,0.05133 -1.279097,1.349514 -1.827679,1.792732 a 12.210223,12.150062 0 0 1 -2.283072,1.457701 c -0.367755,0.180487 -0.688361,0.330066 -0.709438,0.330066 -0.02052,0 -0.134793,0.04637 -0.259038,0.102664 -0.299528,0.139086 -1.092169,0.381397 -1.760007,0.535943 -0.973467,0.231819 -2.795598,0.422793 -3.593231,0.37643 -0.641767,-0.03642 -2.179902,-0.170554 -2.511048,-0.221884 l -0.222428,-0.03092 0.336693,0.262729 c 1.81714,1.42734 4.441897,2.169162 6.756031,1.911401 3.945456,-0.437696 7.176479,-3.127345 8.325783,-6.929174 0.248496,-0.824058 0.481462,-2.189582 0.372745,-2.189582 -0.01553,0 -0.232966,0.13413 -0.481465,0.299158 a 22.345932,22.235832 0 0 1 -5.886843,2.787347 c -1.356753,0.416721 -3.458999,0.663996 -4.799666,0.566303 -0.761024,-0.05684 -1.786077,-0.190424 -1.899787,-0.247276 -0.04659,-0.02594 -0.186373,-0.06182 -0.316169,-0.08279 -0.258482,-0.04084 -1.242489,-0.355456 -1.750022,-0.561332 -0.439863,-0.174968 -1.646297,-0.803638 -2.0451139,-1.066367 -0.797079,-0.525455 -1.2369421,-0.870423 -1.10271,-0.870423 0.010549,0 0.170843,0.07175 0.3627628,0.154545 0.4864571,0.221332 1.7139691,0.669515 1.8326711,0.669515 0.005,0 0.0099,-1.576368 0.0099,-3.503223 V 8.7892149 l 0.196911,-0.1186741 c 0.362208,-0.2318181 0.998983,-0.561331 1.025053,-0.5409099 0.01055,0.015441 0.02107,1.8291609 0.02107,4.0292301 0,3.374068 0.0099,3.997218 0.07211,3.997218 0.03661,0 0.145322,0.01544 0.232966,0.03092 l 0.160858,0.03091 0.0099,-4.214131 0.01553,-4.2191032 0.569659,-0.3195799 c 0.316169,-0.174966 0.590182,-0.3146091 0.615698,-0.3090902 0.02608,0.010559 0.04161,1.9428621 0.03661,4.6363733 l -0.01055,4.621473 h 0.471479 V 6.8574068 l 0.170842,-0.1081881 c 0.476472,-0.3035718 0.408802,-0.2986048 0.756033,-0.09274 l 0.315614,0.1854549 V 11.62292 c 0,2.622312 0.01055,4.785954 0.02052,4.796438 0.01553,0.01545 0.119261,0.01545 0.232966,0.0056 l 0.212443,-0.02098 v -4.63145 c 0,-2.5450382 0.01553,-4.6314061 0.04161,-4.6314061 0.02052,0 0.295092,0.1490279 0.605713,0.3295129 l 0.569105,0.3245461 0.01553,4.2345571 c 0.01114,3.53965 0.02107,4.229588 0.0832,4.229588 0.03605,0 0.14478,-0.01544 0.232966,-0.03092 l 0.160854,-0.03589 v -4.033644 c 0,-3.1996522 0.01491,-4.0391662 0.06657,-4.0341991 0.03162,0 0.305629,0.144613 0.606267,0.3201299 l 0.54359,0.319028 0.01553,3.5700082 c 0.005,1.957764 0.02552,3.565592 0.04105,3.565592 0.02608,0 0.745492,-0.237338 1.397798,-0.463638 0.145323,-0.05188 0.310623,-0.118672 0.362763,-0.144613 0.05158,-0.03092 0.321161,-0.154546 0.590182,-0.273215 0.445409,-0.19539 1.128778,-0.550845 1.760006,-0.911821 0.813164,-0.463637 2.226495,-1.468186 3.183876,-2.266855 0.601274,-0.50448 0.585743,-0.417275 0.306184,-1.324126 a 9.9731888,9.9240504 0 0 0 -2.8272,-4.4873371 C 22.293597,4.7141847 20.347217,3.8178198 18.42136,3.5915208 c -0.605713,-0.07175 -1.895351,-0.06182 -2.484977,0.020431 z" /></clipPath><inkscape:path-effect
   effect="powerclip"
   id="path-effect2141-5"
   is_visible="true"
   lpeversion="1"
   inverse="true"
   flatten="false"
   hide_clip="false"
   message="Use fill-rule evenodd on &lt;b&gt;fill and stroke&lt;/b&gt; dialog if no flatten result after convert clip to paths." /><clipPath
   clipPathUnits="userSpaceOnUse"
   id="clipath_lpe_path-effect2141-5"><path
     d="M 15.935994,3.6113897 C 14.920926,3.7504759 14.0828,4.0082428 13.088254,4.4873349 11.980554,5.0227238 11.35931,5.4764268 10.396381,6.4395789 8.66189,8.1864988 7.714492,10.375531 7.54365,13.013296 c -0.05713,0.906854 0.1342329,2.34965 0.4398621,3.354198 0.2019049,0.669513 0.2484988,0.74182 0.7044478,1.174548 0.8231482,0.772728 1.6202261,1.185034 3.2720711,1.679581 0.460387,0.133573 1.563649,0.340001 2.163816,0.396853 0.636775,0.05629 2.397336,0.02538 2.925394,-0.06182 1.294074,-0.206432 2.661366,-0.556919 3.350281,-0.855524 0.08764,-0.0414 0.17528,-0.07176 0.190811,-0.07176 0.01553,0 0.259036,-0.09824 0.538597,-0.211395 0.724969,-0.309093 1.765553,-0.855523 2.49607,-1.303707 0.351668,-0.216362 0.64676,-0.380843 0.662291,-0.365389 0.05158,0.05133 -1.279097,1.349514 -1.827679,1.792732 a 12.210223,12.150062 0 0 1 -2.283072,1.457701 c -0.367755,0.180487 -0.688361,0.330066 -0.709438,0.330066 -0.02052,0 -0.134793,0.04637 -0.259038,0.102664 -0.299528,0.139086 -1.092169,0.381397 -1.760007,0.535943 -0.973467,0.231819 -2.795598,0.422793 -3.593231,0.37643 -0.641767,-0.03642 -2.179902,-0.170554 -2.511048,-0.221884 l -0.222428,-0.03092 0.336693,0.262729 c 1.81714,1.42734 4.441897,2.169162 6.756031,1.911401 3.945456,-0.437696 7.176479,-3.127345 8.325783,-6.929174 0.248496,-0.824058 0.481462,-2.189582 0.372745,-2.189582 -0.01553,0 -0.232966,0.13413 -0.481465,0.299158 a 22.345932,22.235832 0 0 1 -5.886843,2.787347 c -1.356753,0.416721 -3.458999,0.663996 -4.799666,0.566303 -0.761024,-0.05684 -1.786077,-0.190424 -1.899787,-0.247276 -0.04659,-0.02594 -0.186373,-0.06182 -0.316169,-0.08279 -0.258482,-0.04084 -1.242489,-0.355456 -1.750022,-0.561332 -0.439863,-0.174968 -1.646297,-0.803638 -2.0451139,-1.066367 -0.797079,-0.525455 -1.2369421,-0.870423 -1.10271,-0.870423 0.010549,0 0.170843,0.07175 0.3627628,0.154545 0.4864571,0.221332 1.7139691,0.669515 1.8326711,0.669515 0.005,0 0.0099,-1.576368 0.0099,-3.503223 V 8.7892149 l 0.196911,-0.1186741 c 0.362208,-0.2318181 0.998983,-0.561331 1.025053,-0.5409099 0.01055,0.015441 0.02107,1.8291609 0.02107,4.0292301 0,3.374068 0.0099,3.997218 0.07211,3.997218 0.03661,0 0.145322,0.01544 0.232966,0.03092 l 0.160858,0.03091 0.0099,-4.214131 0.01553,-4.2191032 0.569659,-0.3195799 c 0.316169,-0.174966 0.590182,-0.3146091 0.615698,-0.3090902 0.02608,0.010559 0.04161,1.9428621 0.03661,4.6363733 l -0.01055,4.621473 h 0.471479 V 6.8574068 l 0.170842,-0.1081881 c 0.476472,-0.3035718 0.408802,-0.2986048 0.756033,-0.09274 l 0.315614,0.1854549 V 11.62292 c 0,2.622312 0.01055,4.785954 0.02052,4.796438 0.01553,0.01545 0.119261,0.01545 0.232966,0.0056 l 0.212443,-0.02098 v -4.63145 c 0,-2.5450382 0.01553,-4.6314061 0.04161,-4.6314061 0.02052,0 0.295092,0.1490279 0.605713,0.3295129 l 0.569105,0.3245461 0.01553,4.2345571 c 0.01114,3.53965 0.02107,4.229588 0.0832,4.229588 0.03605,0 0.14478,-0.01544 0.232966,-0.03092 l 0.160854,-0.03589 v -4.033644 c 0,-3.1996522 0.01491,-4.0391662 0.06657,-4.0341991 0.03162,0 0.305629,0.144613 0.606267,0.3201299 l 0.54359,0.319028 0.01553,3.5700082 c 0.005,1.957764 0.02552,3.565592 0.04105,3.565592 0.02608,0 0.745492,-0.237338 1.397798,-0.463638 0.145323,-0.05188 0.310623,-0.118672 0.362763,-0.144613 0.05158,-0.03092 0.321161,-0.154546 0.590182,-0.273215 0.445409,-0.19539 1.128778,-0.550845 1.760006,-0.911821 0.813164,-0.463637 2.226495,-1.468186 3.183876,-2.266855 0.601274,-0.50448 0.585743,-0.417275 0.306184,-1.324126 a 9.9731888,9.9240504 0 0 0 -2.8272,-4.4873371 C 22.293597,4.7141847 20.347217,3.8178198 18.42136,3.5915208 c -0.605713,-0.07175 -1.895351,-0.06182 -2.484977,0.020431 z"
     fill="#0098da"
     style="display:block;fill:#808080;fill-opacity:1;stroke-width:0.553315"
     id="path2204" /></clipPath><linearGradient
   inkscape:collect="always"
   xlink:href="#linearGradient1093"
   id="linearGradient1095"
   x1="0.77698725"
   y1="17.476286"
   x2="34.146984"
   y2="17.476286"
   gradientUnits="userSpaceOnUse"
   spreadMethod="reflect"
   gradientTransform="translate(-34.938272,-0.01429812)" /><linearGradient
   inkscape:collect="always"
   xlink:href="#linearGradient4209"
   id="linearGradient4211"
   x1="17.236179"
   y1="34.061977"
   x2="17.353434"
   y2="11.197655"
   gradientUnits="userSpaceOnUse"
   spreadMethod="reflect" /></defs><sodipodi:namedview
     id="namedview295"
     pagecolor="#ffffff"
     bordercolor="#666666"
     borderopacity="1.0"
     inkscape:showpageshadow="2"
     inkscape:pageopacity="0.0"
     inkscape:pagecheckerboard="0"
     inkscape:deskcolor="#d1d1d1"
     inkscape:document-units="mm"
     showgrid="false"
     showguides="true"
     inkscape:zoom="0.65319551"
     inkscape:cx="3.827338"
     inkscape:cy="277.86474"
     inkscape:window-width="1440"
     inkscape:window-height="791"
     inkscape:window-x="0"
     inkscape:window-y="25"
     inkscape:window-maximized="1"
     inkscape:current-layer="svg293" /><g
     id="g10640"
     transform="translate(-0.77698725,-0.72816864)"><rect
       style="fill:url(#linearGradient1095);fill-opacity:1;fill-rule:evenodd;stroke-width:13.8381"
       id="rect390"
       width="33.369999"
       height="33.369999"
       x="-34.161285"
       y="0.77698725"
       transform="rotate(-90)" /><path
       d="m 24.524233,11.507207 c -3.807332,-6.0038599 -4.935972,-7.8974 -4.826626,-10.77903836 -2.578132,0.01501 -0.0025,0.0019 -2.579222,0.01621 C 10.472132,9.2060781 -0.52977197,22.31097 12.522143,30.383285 c 6.286446,3.701497 13.508776,-0.541749 15.23179,-7.13034 1.304532,-5.342059 -1.767374,-9.423191 -3.2297,-11.745738 z"
       id="path512-6-9"
       style="fill:#ffffff;stroke-width:0.0852469"
       sodipodi:nodetypes="cccccc" /><path
       d="m 16.073837,11.977033 c -0.933781,0.12627 -1.704789,0.360284 -2.619691,0.795229 -1.018995,0.486054 -1.59049,0.897949 -2.476307,1.772349 -1.5955918,1.585946 -2.4671218,3.573263 -2.6242828,5.967965 -0.05255,0.823291 0.123484,2.133135 0.404638,3.045116 0.185736,0.607819 0.228599,0.673464 0.648035,1.066317 0.7572298,0.701523 1.4904778,1.075836 3.0100418,1.524812 0.423519,0.121264 1.438431,0.30867 1.990537,0.360283 0.585782,0.0511 2.205356,0.02304 2.691127,-0.05612 1.190444,-0.187409 2.448243,-0.505599 3.081989,-0.776689 0.08062,-0.03759 0.161243,-0.06514 0.175531,-0.06514 0.01429,0 0.238292,-0.08919 0.495466,-0.191915 0.666913,-0.280612 1.624166,-0.776689 2.296183,-1.183574 0.323506,-0.196425 0.594967,-0.345749 0.609255,-0.331719 0.04745,0.04661 -1.176667,1.225159 -1.681318,1.627535 -0.647855,0.516361 -1.352282,0.960225 -2.100243,1.323378 -0.338305,0.163855 -0.633236,0.299651 -0.652625,0.299651 -0.01888,0 -0.123999,0.0421 -0.238295,0.0932 -0.275541,0.12627 -1.004707,0.346252 -1.619064,0.486557 -0.895512,0.210458 -2.571726,0.383834 -3.305484,0.341743 -0.590374,-0.03307 -2.005334,-0.154837 -2.309962,-0.201438 l -0.204616,-0.02807 0.309731,0.23852 c 1.671622,1.295813 4.086188,1.969278 6.215005,1.73527 3.629502,-0.397364 6.601783,-2.839168 7.659049,-6.290668 0.228597,-0.748123 0.442907,-1.987817 0.342897,-1.987817 -0.01429,0 -0.21431,0.12177 -0.44291,0.271591 -1.669464,1.09894 -3.494017,1.951511 -5.415421,2.5305 -1.248104,0.378321 -3.182001,0.602811 -4.415307,0.514119 -0.700081,-0.05161 -1.643047,-0.172876 -1.747651,-0.22449 -0.04286,-0.02355 -0.171448,-0.05612 -0.29085,-0.07516 -0.237783,-0.03708 -1.14299,-0.322702 -1.60988,-0.509607 -0.404638,-0.158845 -1.514461,-0.729585 -1.88134,-0.968104 -0.7332488,-0.477036 -1.1378868,-0.790216 -1.0144048,-0.790216 0.0097,0 0.157162,0.06513 0.333713,0.140304 0.4475018,0.200937 1.5767138,0.607821 1.6859098,0.607821 1.230184,0.350029 0.08111,-0.01273 1.21893,0.327193 0.03368,0 0.133684,0.01402 0.21431,0.02807 l 0.147976,0.02806 c 1.106467,0.178057 0.05908,0.0017 1.137803,0.177887 h 0.433723 c 1.18712,0.02154 0.0028,-0.01927 1.16187,0.005 0.01429,0.01403 0.187848,-0.01528 0.399958,-0.02421 l 0.0098,0.01026 c 1.202778,-0.143514 0.0412,0.01047 1.209848,-0.131336 0.03316,0 0.133186,-0.01402 0.21431,-0.02807 l 0.147977,-0.03259 1.171066,-0.266077 c 0.02399,0 0.685793,-0.215469 1.285862,-0.420916 0.133685,-0.0471 0.285748,-0.107736 0.333712,-0.131287 0.04745,-0.02807 0.295443,-0.140305 0.54292,-0.248038 0.409741,-0.177386 1.038385,-0.500087 1.619064,-0.8278 0.748046,-0.420914 2.048196,-1.332896 2.92891,-2.057969 0.553108,-0.457993 0.53882,-0.378824 0.281649,-1.20211 -0.475128,-1.564241 -1.374082,-2.972333 -2.600816,-4.073833 -1.309844,-1.192592 -3.100357,-2.006359 -4.871991,-2.211805 -0.557207,-0.06514 -1.74357,-0.05612 -2.285979,0.01855 z"
       fill="#0098da"
       style="fill:url(#linearGradient4211);fill-opacity:1;fill-rule:evenodd;stroke-width:0.505655"
       id="path291-2"
       sodipodi:nodetypes="ccccccccccscccccsccccccccscccccccscccccccccccccccccccccccc" /><g
       id="g2397"
       transform="matrix(0.92017435,0,0,0.8898214,-27.711908,5.1504553)"
       style="fill:#fff000;fill-opacity:1"><path
         id="rect1315"
         clip-path="url(#clipPath2016)"
         style="fill:#fff000;fill-opacity:1;fill-rule:evenodd;stroke-width:0.637386"
         d="m 18.281571,8.7431356 v 9.6879134 l 1.24902,-0.138831 V 8.7431356 Z"
         sodipodi:nodetypes="ccccc"
         transform="translate(29.189764,2.3115777)" /><path
         id="rect1315-7"
         clip-path="url(#clipPath2010)"
         style="fill:#fff000;fill-opacity:1;fill-rule:evenodd;stroke-width:0.637386"
         d="m 19.972093,8.6520942 v 9.5925838 l 1.249019,-0.307771 V 8.6520942 Z"
         transform="translate(29.189764,2.3115777)"
         sodipodi:nodetypes="ccccc" /><path
         id="rect1315-5"
         style="fill:#fff000;fill-opacity:1;fill-rule:evenodd;stroke-width:0.637386"
         d="m 21.701927,8.450532 h 1.249115 v 8.919264 l -1.249115,0.445288 z"
         clip-path="url(#clipPath2004)"
         sodipodi:nodetypes="ccccc"
         transform="translate(29.189764,2.3115777)" /><path
         id="rect1315-52"
         style="fill:#fff000;fill-opacity:1;fill-rule:evenodd;stroke-width:0.637386"
         d="m 16.580008,8.450532 h 1.249114 v 9.995091 l -1.249114,0.01145 z"
         clip-path="url(#clipPath1998)"
         sodipodi:nodetypes="ccccc"
         transform="translate(29.189764,2.3115777)" /><path
         id="rect1315-4"
         style="fill:#fff000;fill-opacity:1;fill-rule:evenodd;stroke-width:0.637386"
         d="m 14.859711,8.450532 h 1.249115 v 9.957201 l -1.249115,-0.208887 z"
         clip-path="url(#clipPath1992)"
         sodipodi:nodetypes="ccccc"
         transform="translate(29.189764,2.3115777)" /></g></g></svg>
